<mxfile host="Electron" agent="Mozilla/5.0 (X11; Linux x86_64) AppleWebKit/537.36 (KHTML, like Gecko) draw.io/24.7.8 Chrome/128.0.6613.36 Electron/32.0.1 Safari/537.36" version="24.7.8">
  <diagram name="Page-1" id="6v0OZtU_RUdN3xOjoTHH">
    <mxGraphModel dx="1082" dy="878" grid="1" gridSize="10" guides="1" tooltips="1" connect="1" arrows="1" fold="1" page="1" pageScale="1" pageWidth="850" pageHeight="1100" math="0" shadow="0">
      <root>
        <mxCell id="0" />
        <mxCell id="1" parent="0" />
        <mxCell id="tL-xbhYH3c2xa3di5NlC-1" value="" style="ellipse;whiteSpace=wrap;html=1;strokeColor=#938f1f;" vertex="1" parent="1">
          <mxGeometry x="140" y="260" width="120" height="120" as="geometry" />
        </mxCell>
        <mxCell id="tL-xbhYH3c2xa3di5NlC-2" value="" style="ellipse;whiteSpace=wrap;html=1;strokeColor=#938f1f;" vertex="1" parent="1">
          <mxGeometry x="330" y="350" width="120" height="120" as="geometry" />
        </mxCell>
        <mxCell id="tL-xbhYH3c2xa3di5NlC-3" value="" style="ellipse;whiteSpace=wrap;html=1;strokeColor=#938f1f;" vertex="1" parent="1">
          <mxGeometry x="570" y="320" width="120" height="120" as="geometry" />
        </mxCell>
        <mxCell id="tL-xbhYH3c2xa3di5NlC-4" value="" style="ellipse;whiteSpace=wrap;html=1;strokeColor=#938f1f;" vertex="1" parent="1">
          <mxGeometry x="740" y="410" width="120" height="120" as="geometry" />
        </mxCell>
        <mxCell id="tL-xbhYH3c2xa3di5NlC-5" value="" style="shape=waypoint;sketch=0;fillStyle=solid;size=6;pointerEvents=1;points=[];fillColor=none;resizable=0;rotatable=0;perimeter=centerPerimeter;snapToPoint=1;" vertex="1" parent="1">
          <mxGeometry x="190" y="310" width="20" height="20" as="geometry" />
        </mxCell>
        <mxCell id="tL-xbhYH3c2xa3di5NlC-6" value="" style="shape=waypoint;sketch=0;fillStyle=solid;size=6;pointerEvents=1;points=[];fillColor=none;resizable=0;rotatable=0;perimeter=centerPerimeter;snapToPoint=1;" vertex="1" parent="1">
          <mxGeometry x="380" y="400" width="20" height="20" as="geometry" />
        </mxCell>
        <mxCell id="tL-xbhYH3c2xa3di5NlC-7" value="" style="shape=waypoint;sketch=0;fillStyle=solid;size=6;pointerEvents=1;points=[];fillColor=none;resizable=0;rotatable=0;perimeter=centerPerimeter;snapToPoint=1;" vertex="1" parent="1">
          <mxGeometry x="620" y="370" width="20" height="20" as="geometry" />
        </mxCell>
        <mxCell id="tL-xbhYH3c2xa3di5NlC-8" value="" style="shape=waypoint;sketch=0;fillStyle=solid;size=6;pointerEvents=1;points=[];fillColor=none;resizable=0;rotatable=0;perimeter=centerPerimeter;snapToPoint=1;" vertex="1" parent="1">
          <mxGeometry x="790" y="460" width="20" height="20" as="geometry" />
        </mxCell>
        <mxCell id="tL-xbhYH3c2xa3di5NlC-9" value="" style="endArrow=none;html=1;rounded=0;exitX=0.676;exitY=0.669;exitDx=0;exitDy=0;exitPerimeter=0;entryX=0.348;entryY=0.859;entryDx=0;entryDy=0;entryPerimeter=0;" edge="1" parent="1" source="tL-xbhYH3c2xa3di5NlC-5" target="tL-xbhYH3c2xa3di5NlC-6">
          <mxGeometry width="50" height="50" relative="1" as="geometry">
            <mxPoint x="250" y="470" as="sourcePoint" />
            <mxPoint x="300" y="420" as="targetPoint" />
          </mxGeometry>
        </mxCell>
        <mxCell id="tL-xbhYH3c2xa3di5NlC-10" value="" style="endArrow=none;html=1;rounded=0;entryX=0.659;entryY=0.91;entryDx=0;entryDy=0;entryPerimeter=0;" edge="1" parent="1" source="tL-xbhYH3c2xa3di5NlC-6" target="tL-xbhYH3c2xa3di5NlC-7">
          <mxGeometry width="50" height="50" relative="1" as="geometry">
            <mxPoint x="380" y="570" as="sourcePoint" />
            <mxPoint x="430" y="520" as="targetPoint" />
          </mxGeometry>
        </mxCell>
        <mxCell id="tL-xbhYH3c2xa3di5NlC-11" value="" style="endArrow=none;html=1;rounded=0;exitX=0.279;exitY=0.738;exitDx=0;exitDy=0;exitPerimeter=0;entryX=0.71;entryY=0.824;entryDx=0;entryDy=0;entryPerimeter=0;" edge="1" parent="1" source="tL-xbhYH3c2xa3di5NlC-7" target="tL-xbhYH3c2xa3di5NlC-8">
          <mxGeometry width="50" height="50" relative="1" as="geometry">
            <mxPoint x="590" y="640" as="sourcePoint" />
            <mxPoint x="640" y="590" as="targetPoint" />
          </mxGeometry>
        </mxCell>
        <mxCell id="tL-xbhYH3c2xa3di5NlC-18" value="sphereMinX" style="text;html=1;align=center;verticalAlign=middle;whiteSpace=wrap;rounded=0;fontSize=22;fontColor=#FF33FF;" vertex="1" parent="1">
          <mxGeometry x="60" y="690" width="170" height="40" as="geometry" />
        </mxCell>
        <mxCell id="tL-xbhYH3c2xa3di5NlC-21" value="" style="rounded=0;whiteSpace=wrap;html=1;fillColor=none;dashed=1;strokeColor=#FF33FF;strokeWidth=4;" vertex="1" parent="1">
          <mxGeometry x="140" y="260" width="720" height="270" as="geometry" />
        </mxCell>
        <mxCell id="tL-xbhYH3c2xa3di5NlC-22" value="" style="rounded=0;whiteSpace=wrap;html=1;fillColor=none;dashed=1;strokeColor=#FF8000;strokeWidth=4;" vertex="1" parent="1">
          <mxGeometry x="200" y="320" width="600" height="150" as="geometry" />
        </mxCell>
        <mxCell id="tL-xbhYH3c2xa3di5NlC-23" value="" style="endArrow=none;dashed=1;html=1;dashPattern=1 3;strokeWidth=2;rounded=0;" edge="1" parent="1">
          <mxGeometry width="50" height="50" relative="1" as="geometry">
            <mxPoint x="140" y="680" as="sourcePoint" />
            <mxPoint x="140" y="260" as="targetPoint" />
          </mxGeometry>
        </mxCell>
        <mxCell id="tL-xbhYH3c2xa3di5NlC-24" value="" style="endArrow=none;dashed=1;html=1;dashPattern=1 3;strokeWidth=2;rounded=0;" edge="1" parent="1">
          <mxGeometry width="50" height="50" relative="1" as="geometry">
            <mxPoint x="860" y="680" as="sourcePoint" />
            <mxPoint x="860" y="260" as="targetPoint" />
          </mxGeometry>
        </mxCell>
        <mxCell id="tL-xbhYH3c2xa3di5NlC-25" value="sphereMaxX" style="text;html=1;align=center;verticalAlign=middle;whiteSpace=wrap;rounded=0;fontSize=22;fontColor=#FF33FF;" vertex="1" parent="1">
          <mxGeometry x="780" y="690" width="170" height="40" as="geometry" />
        </mxCell>
        <mxCell id="tL-xbhYH3c2xa3di5NlC-26" value="" style="endArrow=none;dashed=1;html=1;dashPattern=1 3;strokeWidth=2;rounded=0;" edge="1" parent="1">
          <mxGeometry width="50" height="50" relative="1" as="geometry">
            <mxPoint x="199" y="530" as="sourcePoint" />
            <mxPoint x="199" y="120" as="targetPoint" />
          </mxGeometry>
        </mxCell>
        <mxCell id="tL-xbhYH3c2xa3di5NlC-27" value="" style="endArrow=none;dashed=1;html=1;dashPattern=1 3;strokeWidth=2;rounded=0;" edge="1" parent="1">
          <mxGeometry width="50" height="50" relative="1" as="geometry">
            <mxPoint x="800" y="530" as="sourcePoint" />
            <mxPoint x="800" y="120" as="targetPoint" />
          </mxGeometry>
        </mxCell>
        <mxCell id="tL-xbhYH3c2xa3di5NlC-28" value="centerMinX" style="text;html=1;align=center;verticalAlign=middle;whiteSpace=wrap;rounded=0;fontSize=22;fontColor=#FF8000;" vertex="1" parent="1">
          <mxGeometry x="115" y="70" width="170" height="40" as="geometry" />
        </mxCell>
        <mxCell id="tL-xbhYH3c2xa3di5NlC-29" value="centerMaxX" style="text;html=1;align=center;verticalAlign=middle;whiteSpace=wrap;rounded=0;fontSize=22;fontColor=#FF8000;" vertex="1" parent="1">
          <mxGeometry x="710" y="70" width="170" height="40" as="geometry" />
        </mxCell>
      </root>
    </mxGraphModel>
  </diagram>
</mxfile>
